<?xml version="1.0" encoding="UTF-8"?>
<!DOCTYPE svg PUBLIC "-//W3C//DTD SVG 1.1//EN" "http://www.w3.org/Graphics/SVG/1.1/DTD/svg11.dtd">
<!-- Creator: CorelDRAW 2021 (64-Bit) -->
<svg xmlns="http://www.w3.org/2000/svg" xml:space="preserve" width="0.0846732in" height="0.097311in" version="1.1" style="shape-rendering:geometricPrecision; text-rendering:geometricPrecision; image-rendering:optimizeQuality; fill-rule:evenodd; clip-rule:evenodd"
viewBox="0 0 2.47 2.84"
 xmlns:xlink="http://www.w3.org/1999/xlink"
 xmlns:xodm="http://www.corel.com/coreldraw/odm/2003">
 <defs>
  <style type="text/css">
   <![CDATA[
    .fil0 {fill:#EF333B;fill-rule:nonzero}
   ]]>
  </style>
 </defs>
 <g id="Layer_x0020_1">
  <metadata id="CorelCorpID_0Corel-Layer"/>
  <g id="_1506153757296">
   <g id="surface1">
    <path class="fil0" d="M1.23 0c-0.02,0 -0.03,0.01 -0.04,0.02l-0.35 0.41 -0.64 0c-0,-0 -0.01,-0 -0.01,-0 -0,0 -0.01,0 -0.01,0l-0.11 0c-0.02,-0 -0.04,0.01 -0.05,0.03 -0.01,0.02 -0.01,0.04 0,0.06 0.01,0.02 0.03,0.03 0.05,0.03l0.06 0 0 0.12c-0,0.02 0.01,0.04 0.03,0.05 0.02,0.01 0.04,0.01 0.06,0 0.02,-0.01 0.03,-0.03 0.03,-0.05l0 -0.12 0.04 0 0.51 0.34 0 0.34 -0.61 0c-0,-0 -0.01,-0 -0.01,-0 -0,0 -0.01,0 -0.01,0l-0.11 0c-0.02,-0 -0.04,0.01 -0.05,0.03 -0.01,0.02 -0.01,0.04 0,0.06 0.01,0.02 0.03,0.03 0.05,0.03l0.06 0 0 0.12c-0,0.02 0.01,0.04 0.03,0.05 0.02,0.01 0.04,0.01 0.06,0 0.02,-0.01 0.03,-0.03 0.03,-0.05l0 -0.12 0.04 0 0.51 0.34 0 0.38 -0.48 0.66c-0.02,0.02 -0.02,0.05 0,0.07 0.02,0.02 0.04,0.03 0.07,0.02l0.84 -0.3 0.84 0.3c0.03,0.01 0.05,0 0.07,-0.02 0.02,-0.02 0.02,-0.05 0,-0.07l-0.48 -0.66 0 -0.38 0.51 -0.34 0.04 0 0 0.12c-0,0.02 0.01,0.04 0.03,0.05 0.02,0.01 0.04,0.01 0.06,0 0.02,-0.01 0.03,-0.03 0.03,-0.05l0 -0.12 0.06 0c0.02,0 0.04,-0.01 0.05,-0.03 0.01,-0.02 0.01,-0.04 0,-0.06 -0.01,-0.02 -0.03,-0.03 -0.05,-0.03l-0.11 0c-0,-0 -0.01,-0 -0.01,-0 -0,0 -0.01,0 -0.01,0l-0.61 0 0 -0.34 0.51 -0.34 0.04 0 0 0.12c-0,0.02 0.01,0.04 0.03,0.05 0.02,0.01 0.04,0.01 0.06,0 0.02,-0.01 0.03,-0.03 0.03,-0.05l0 -0.12 0.06 0c0.02,0 0.04,-0.01 0.05,-0.03 0.01,-0.02 0.01,-0.04 0,-0.06 -0.01,-0.02 -0.03,-0.03 -0.05,-0.03l-0.11 0c-0,-0 -0.01,-0 -0.01,-0 -0,0 -0.01,0 -0.01,0l-0.64 0 -0.35 -0.41c-0.01,-0.01 -0.03,-0.02 -0.05,-0.02zm0 0.16l0.24 0.28 -0.47 0 0.24 -0.28zm-0.72 0.4l0.29 0 0 0.19 -0.29 -0.19zm0.49 0l0.46 0 -0.23 0.25 -0.23 -0.25zm0.66 0l0.29 0 -0.29 0.19 0 -0.19zm-0.74 0.1l0.22 0.24 -0.22 0.24 0 -0.49zm0.62 0l0 0.49 -0.22 -0.24 0.22 -0.24zm-0.31 0.33l0.23 0.25 -0.46 0 0.23 -0.25zm-0.72 0.37l0.29 0 0 0.19 -0.29 -0.19zm0.49 0l0.46 0 -0.23 0.25 -0.23 -0.25zm0.66 0l0.29 0 -0.29 0.19 0 -0.19zm-0.74 0.1l0.22 0.24 -0.22 0.24 0 -0.49zm0.62 0l0 0.49 -0.22 -0.24 0.22 -0.24zm-0.31 0.33l0.28 0.31 -0.28 0.28 -0.28 -0.28 0.28 -0.31zm-0.36 0.4l0.25 0.25 -0.58 0.21 0.33 -0.46zm0.72 0l0.33 0.46 -0.58 -0.21 0.25 -0.25z"/>
   </g>
  </g>
 </g>
</svg>
