<?xml version="1.0" encoding="UTF-8"?>
<!DOCTYPE svg PUBLIC "-//W3C//DTD SVG 1.1//EN" "http://www.w3.org/Graphics/SVG/1.1/DTD/svg11.dtd">
<!-- Creator: CorelDRAW 2021 (64-Bit) -->
<svg xmlns="http://www.w3.org/2000/svg" xml:space="preserve" width="0.099in" height="0.0913858in" version="1.1" style="shape-rendering:geometricPrecision; text-rendering:geometricPrecision; image-rendering:optimizeQuality; fill-rule:evenodd; clip-rule:evenodd"
viewBox="0 0 1.93 1.78"
 xmlns:xlink="http://www.w3.org/1999/xlink"
 xmlns:xodm="http://www.corel.com/coreldraw/odm/2003">
 <defs>
  <style type="text/css">
   <![CDATA[
    .fil0 {fill:#EF333B;fill-rule:nonzero}
   ]]>
  </style>
 </defs>
 <g id="Layer_x0020_1">
  <metadata id="CorelCorpID_0Corel-Layer"/>
  <g id="_1504394800896">
   <g id="surface1">
    <path class="fil0" d="M1.54 0l-0.02 0.01 -0.55 0.41c-0.03,-0.03 -0.07,-0.05 -0.12,-0.05l-0.55 0c-0.08,0 -0.15,0.07 -0.15,0.15l0 0.45c0,0.08 0.07,0.15 0.15,0.15l0.07 0 0 0.07 -0.07 0c-0.16,0 -0.3,0.13 -0.3,0.3 0,0.16 0.13,0.3 0.3,0.3l0.89 0c0.16,0 0.3,-0.13 0.3,-0.3 0,-0.16 -0.13,-0.3 -0.3,-0.3l-0.15 0 0 -0.07 0.07 0c0.08,0 0.15,-0.07 0.15,-0.15l0 -0.06c0,-0.01 -0,-0.01 -0,-0.02l0 0 0 -0.06c0,-0.04 -0.01,-0.08 -0.03,-0.11l0.54 -0.59 0.02 -0.02 0 -0.11 -0.25 0zm-0.06 0.23l-0.35 0.38 -0.07 -0.07 0.41 -0.31zm0.31 0l-0.15 0.2 0 0.39c0,0.06 0.04,0.12 0.1,0.15 0.03,0.01 0.05,0.04 0.05,0.07 0,0.04 -0.03,0.07 -0.07,0.07 -0.04,0 -0.07,-0.03 -0.07,-0.07l-0.15 0c0,0.12 0.1,0.22 0.22,0.22 0.12,0 0.22,-0.1 0.22,-0.22 0,-0.1 -0.06,-0.18 -0.15,-0.21 0,0 -0,-0 -0,-0.01l0 -0.59zm-1.49 0.29l0.31 0 0.06 0.31 0.01 0.06 0.41 0c0.01,0 0.02,0.01 0.02,0.02l0 0.06 -0.82 0 0 -0.45zm0.46 0l0.09 0c0,0 0,0 0,0l0 0 0 0 0.19 0.22 -0.24 0 -0.04 -0.22zm-0.24 0.59l0.37 0 0 0.07 -0.37 0 0 -0.07zm-0.22 0.22l0.89 0c0.08,0 0.15,0.07 0.15,0.15 0,0.08 -0.07,0.15 -0.15,0.15l-0.89 0c-0.08,0 -0.15,-0.07 -0.15,-0.15 0,-0.08 0.07,-0.15 0.15,-0.15zm0 0.07c-0.04,0 -0.07,0.03 -0.07,0.07 0,0.04 0.03,0.07 0.07,0.07 0.04,0 0.07,-0.03 0.07,-0.07 0,-0.04 -0.03,-0.07 -0.07,-0.07zm0.3 0c-0.04,0 -0.07,0.03 -0.07,0.07 0,0.04 0.03,0.07 0.07,0.07 0.04,0 0.07,-0.03 0.07,-0.07 0,-0.04 -0.03,-0.07 -0.07,-0.07zm0.3 0c-0.04,0 -0.07,0.03 -0.07,0.07 0,0.04 0.03,0.07 0.07,0.07 0.04,0 0.07,-0.03 0.07,-0.07 0,-0.04 -0.03,-0.07 -0.07,-0.07zm0.3 0c-0.04,0 -0.07,0.03 -0.07,0.07 0,0.04 0.03,0.07 0.07,0.07 0.04,0 0.07,-0.03 0.07,-0.07 0,-0.04 -0.03,-0.07 -0.07,-0.07z"/>
   </g>
  </g>
 </g>
</svg>
