<?xml version="1.0" encoding="UTF-8"?>
<!DOCTYPE svg PUBLIC "-//W3C//DTD SVG 1.1//EN" "http://www.w3.org/Graphics/SVG/1.1/DTD/svg11.dtd">
<!-- Creator: CorelDRAW 2021 (64-Bit) -->
<svg xmlns="http://www.w3.org/2000/svg" xml:space="preserve" width="0.113039in" height="0.10178in" version="1.1" style="shape-rendering:geometricPrecision; text-rendering:geometricPrecision; image-rendering:optimizeQuality; fill-rule:evenodd; clip-rule:evenodd"
viewBox="0 0 2.53 2.28"
 xmlns:xlink="http://www.w3.org/1999/xlink"
 xmlns:xodm="http://www.corel.com/coreldraw/odm/2003">
 <defs>
  <style type="text/css">
   <![CDATA[
    .fil0 {fill:#1B2E7E;fill-rule:nonzero}
   ]]>
  </style>
 </defs>
 <g id="Layer_x0020_1">
  <metadata id="CorelCorpID_0Corel-Layer"/>
  <g id="_1504394789424">
   <g id="surface1">
    <path class="fil0" d="M1.26 0c-0,0 -0,0 -0.01,0l-0.04 0c-0,0 -0,0 -0,0 -0.03,0 -0.05,0.03 -0.05,0.05 0,0.03 0.03,0.05 0.05,0.05l0 0.05 -0.1 0c-0,0 -0,0 -0,0 -0.02,0 -0.04,0.02 -0.05,0.04l-0.15 0.87 -0.56 0c-0.03,0 -0.05,0.02 -0.05,0.05l0 0.15 -0.15 0c-0.03,0 -0.05,0.02 -0.05,0.05l0 0.15c0,0.03 0.02,0.05 0.05,0.05l2.22 0c0.03,0 0.05,-0.02 0.05,-0.05l0 -0.15c0,-0.03 -0.02,-0.05 -0.05,-0.05l-0.2 0 0 -0.15c0,-0.03 -0.02,-0.05 -0.05,-0.05l-0.51 0 -0.15 -0.87c-0,-0.02 -0.03,-0.04 -0.05,-0.04l-0.1 0 0 -0.05c0.02,0 0.04,-0.01 0.04,-0.03 0.01,-0.02 0.01,-0.04 0,-0.05 -0.01,-0.02 -0.03,-0.03 -0.04,-0.03l-0.04 0c-0,-0 -0.01,-0 -0.01,-0zm-0.1 0.25l0.06 0 0 0.81 -0.19 0 0.14 -0.81zm0.16 0l0.06 0 0.14 0.81 -0.19 0 0 -0.81zm-0.76 1.31l0 0.26c0.05,0.03 0.11,0.04 0.15,0.04 0.05,0 0.11,-0.01 0.15,-0.04l0 -0.26 -0.3 0zm1.11 0l0 0.26c0.05,0.03 0.11,0.04 0.15,0.04 0.04,0 0.1,-0.01 0.15,-0.04l0 -0.26 -0.3 0zm-1.25 0.3c-0.01,0 -0.02,0.01 -0.03,0.01 -0.07,0.06 -0.18,0.09 -0.25,0.09 -0.03,0 -0.06,-0 -0.08,-0.01 -0.03,-0.01 -0.05,0.01 -0.06,0.04 -0.01,0.03 0.01,0.05 0.04,0.06 0.03,0.01 0.06,0.01 0.1,0.01 0.08,0 0.19,-0.03 0.28,-0.09 0.09,0.07 0.2,0.09 0.28,0.09 0.08,0 0.19,-0.03 0.28,-0.09 0.09,0.07 0.2,0.09 0.28,0.09 0.08,0 0.19,-0.03 0.28,-0.09 0.09,0.07 0.2,0.09 0.28,0.09 0.08,0 0.19,-0.03 0.28,-0.09 0.09,0.07 0.2,0.09 0.28,0.09 0.04,0 0.08,-0.01 0.11,-0.02 0.03,-0.01 0.04,-0.04 0.03,-0.07 -0.01,-0.03 -0.04,-0.04 -0.07,-0.03 -0.02,0.01 -0.04,0.01 -0.07,0.01 -0.07,0 -0.18,-0.02 -0.25,-0.09 -0.02,-0.02 -0.05,-0.02 -0.07,0 -0.07,0.06 -0.18,0.09 -0.25,0.09 -0.07,0 -0.18,-0.02 -0.24,-0.09 -0.02,-0.02 -0.05,-0.02 -0.07,0 -0.07,0.06 -0.18,0.09 -0.25,0.09 -0.07,0 -0.18,-0.02 -0.25,-0.09 -0.02,-0.02 -0.05,-0.02 -0.07,0 -0.07,0.06 -0.18,0.09 -0.24,0.09 -0.07,0 -0.18,-0.02 -0.25,-0.09 -0.01,-0.01 -0.03,-0.02 -0.04,-0.01zm0 0.2c-0.01,0 -0.02,0.01 -0.03,0.01 -0.07,0.06 -0.18,0.09 -0.25,0.09 -0.03,0 -0.06,-0 -0.08,-0.01 -0.03,-0.01 -0.05,0.01 -0.06,0.04 -0.01,0.03 0.01,0.05 0.04,0.06 0.03,0.01 0.06,0.01 0.1,0.01 0.08,0 0.19,-0.03 0.28,-0.09 0.09,0.07 0.2,0.09 0.28,0.09 0.08,0 0.19,-0.03 0.28,-0.09 0.09,0.07 0.2,0.09 0.28,0.09 0.08,0 0.19,-0.03 0.28,-0.09 0.09,0.07 0.2,0.09 0.28,0.09 0.08,0 0.19,-0.03 0.28,-0.09 0.09,0.07 0.2,0.09 0.28,0.09 0.04,0 0.08,-0.01 0.11,-0.02 0.03,-0.01 0.04,-0.04 0.03,-0.07 -0.01,-0.03 -0.04,-0.04 -0.07,-0.03 -0.02,0.01 -0.04,0.01 -0.07,0.01 -0.07,0 -0.18,-0.02 -0.25,-0.09 -0.02,-0.02 -0.05,-0.02 -0.07,0 -0.07,0.06 -0.18,0.09 -0.25,0.09 -0.07,0 -0.18,-0.02 -0.24,-0.09 -0.02,-0.02 -0.05,-0.02 -0.07,0 -0.07,0.06 -0.18,0.09 -0.25,0.09 -0.07,0 -0.18,-0.02 -0.25,-0.09 -0.02,-0.02 -0.05,-0.02 -0.07,0 -0.07,0.06 -0.18,0.09 -0.24,0.09 -0.07,0 -0.18,-0.02 -0.25,-0.09 -0.01,-0.01 -0.03,-0.02 -0.04,-0.01z"/>
   </g>
  </g>
 </g>
</svg>
