<?xml version="1.0" encoding="UTF-8"?>
<!DOCTYPE svg PUBLIC "-//W3C//DTD SVG 1.1//EN" "http://www.w3.org/Graphics/SVG/1.1/DTD/svg11.dtd">
<!-- Creator: CorelDRAW 2021 (64-Bit) -->
<svg xmlns="http://www.w3.org/2000/svg" xml:space="preserve" width="0.0947638in" height="0.0947638in" version="1.1" style="shape-rendering:geometricPrecision; text-rendering:geometricPrecision; image-rendering:optimizeQuality; fill-rule:evenodd; clip-rule:evenodd"
viewBox="0 0 3.1 3.1"
 xmlns:xlink="http://www.w3.org/1999/xlink"
 xmlns:xodm="http://www.corel.com/coreldraw/odm/2003">
 <defs>
  <style type="text/css">
   <![CDATA[
    .fil0 {fill:#1B2E7E;fill-rule:nonzero}
   ]]>
  </style>
 </defs>
 <g id="Layer_x0020_1">
  <metadata id="CorelCorpID_0Corel-Layer"/>
  <g id="_1507713862592">
   <g id="surface1">
    <path class="fil0" d="M0.12 0c-0.07,0 -0.12,0.06 -0.12,0.12l0 0.95c-0,0.04 0.02,0.08 0.06,0.1 0.04,0.02 0.08,0.02 0.12,0 0.04,-0.02 0.06,-0.06 0.06,-0.1l0 -0.12 1.05 0c0.01,0 0.03,0 0.04,0l0.22 0c0.33,0 0.6,0.27 0.6,0.6l0 0.22c-0,0.01 -0,0.03 0,0.04l0 1.05 -0.12 0c-0.04,-0 -0.08,0.02 -0.1,0.06 -0.02,0.04 -0.02,0.08 0,0.12 0.02,0.04 0.06,0.06 0.1,0.06l0.95 0c0.04,0 0.08,-0.02 0.1,-0.06 0.02,-0.04 0.02,-0.08 0,-0.12 -0.02,-0.04 -0.06,-0.06 -0.1,-0.06l-0.12 0 0 -1.05c0,-0.01 0,-0.03 0,-0.04l0 -0.22c0,-0.72 -0.59,-1.31 -1.31,-1.31l-0.22 0c-0.01,-0 -0.02,-0 -0.02,-0 -0.01,0 -0.01,0 -0.02,0l-1.05 0 0 -0.12c0,-0.03 -0.01,-0.06 -0.03,-0.09 -0.02,-0.02 -0.05,-0.04 -0.09,-0.03zm0.12 0.48l0.95 0 0 0.24 -0.95 0 0 -0.24zm1.19 0l0.12 0c0.59,0 1.07,0.48 1.07,1.07l0 0.12 -0.24 0 0 -0.12c0,-0.46 -0.38,-0.83 -0.83,-0.83l-0.12 0 0 -0.24zm-1.31 0.95c-0.07,0 -0.12,0.06 -0.12,0.12l0 0.95c-0,0.04 0.02,0.08 0.06,0.1 0.04,0.02 0.08,0.02 0.12,0 0.04,-0.02 0.06,-0.06 0.06,-0.1l0 -0.12 0.48 0 0 0.48 -0.12 0c-0.04,-0 -0.08,0.02 -0.1,0.06 -0.02,0.04 -0.02,0.08 0,0.12 0.02,0.04 0.06,0.06 0.1,0.06l0.95 0c0.04,0 0.08,-0.02 0.1,-0.06 0.02,-0.04 0.02,-0.08 0,-0.12 -0.02,-0.04 -0.06,-0.06 -0.1,-0.06l-0.12 0 0 -0.6c0,-0.33 -0.27,-0.6 -0.6,-0.6l-0.6 0 0 -0.12c0,-0.03 -0.01,-0.06 -0.03,-0.09 -0.02,-0.02 -0.05,-0.04 -0.09,-0.03zm0.12 0.48l0.6 0c0.2,0 0.36,0.16 0.36,0.36l0 0.6 -0.24 0 0 -0.6c0,-0.07 -0.05,-0.12 -0.12,-0.12l-0.6 0 0 -0.24zm2.15 0l0.24 0 0 0.95 -0.24 0 0 -0.95z"/>
   </g>
  </g>
 </g>
</svg>
