<?xml version="1.0" encoding="UTF-8"?>
<!DOCTYPE svg PUBLIC "-//W3C//DTD SVG 1.1//EN" "http://www.w3.org/Graphics/SVG/1.1/DTD/svg11.dtd">
<!-- Creator: CorelDRAW 2021 (64-Bit) -->
<svg xmlns="http://www.w3.org/2000/svg" xml:space="preserve" width="0.0940827in" height="0.0940787in" version="1.1" style="shape-rendering:geometricPrecision; text-rendering:geometricPrecision; image-rendering:optimizeQuality; fill-rule:evenodd; clip-rule:evenodd"
viewBox="0 0 2.22 2.22"
 xmlns:xlink="http://www.w3.org/1999/xlink"
 xmlns:xodm="http://www.corel.com/coreldraw/odm/2003">
 <defs>
  <style type="text/css">
   <![CDATA[
    .fil0 {fill:#1B2E7E;fill-rule:nonzero}
   ]]>
  </style>
 </defs>
 <g id="Layer_x0020_1">
  <metadata id="CorelCorpID_0Corel-Layer"/>
  <g id="_1465086078496">
   <g id="surface1">
    <path class="fil0" d="M1.11 0c0,0 -0.06,0.19 -0.12,0.21 -0.06,0.03 -0.24,-0.06 -0.24,-0.06 0,0 0.08,0.18 0.06,0.24 -0.03,0.06 -0.21,0.12 -0.21,0.12 0,0 0.12,0.03 0.18,0.09l0.09 0c-0.01,-0.03 -0.02,-0.05 -0.02,-0.09 0,-0.15 0.12,-0.26 0.26,-0.26 0.15,0 0.26,0.12 0.26,0.26 0,0.03 -0.01,0.06 -0.02,0.09l0.09 0c0.06,-0.04 0.17,-0.09 0.17,-0.09 0,0 -0.18,-0.05 -0.21,-0.12 -0.03,-0.08 0.05,-0.24 0.05,-0.24 0,0 -0.17,0.09 -0.23,0.06 -0.05,-0.03 -0.13,-0.21 -0.13,-0.21zm-0.77 0.68c-0.04,0 -0.07,0.02 -0.09,0.06l-0.26 0.94 0 0.11c0,0.05 0.03,0.09 0.09,0.09l2.05 0c0.09,0 0.09,-0.09 0.09,-0.09l0 -0.09c0,-0.02 0,-0.03 -0.01,-0.03l-0.25 -0.93c-0.02,-0.03 -0.04,-0.06 -0.09,-0.06l-1.54 0zm0.07 0.17l1.41 0 0.21 0.77 -1.84 0 0.21 -0.77zm0.12 0.09l-0.05 0.21 0.32 0 0.02 -0.21 -0.29 0zm0.44 0l-0.01 0.21 0.32 0.01 -0.02 -0.21 -0.29 0zm0.44 0l0.02 0.21 0.32 0 -0.05 -0.21 -0.29 0zm-0.96 0.34l-0.06 0.26 0.36 0 0.03 -0.26 -0.33 0zm0.5 0l-0.02 0.26 0.36 0 -0.01 -0.26 -0.33 0zm0.5 0l0.03 0.26 0.36 0 -0.06 -0.26 -0.33 0zm-0.5 0.68l0 0.09 -0.17 0c-0.09,0 -0.09,0.09 -0.09,0.09l0 0.09 0.85 0 0 -0.09c0,-0.05 -0.03,-0.09 -0.09,-0.09l-0.17 0 0 -0.09 -0.34 0z"/>
   </g>
  </g>
 </g>
</svg>
