<?xml version="1.0" encoding="UTF-8"?>
<!DOCTYPE svg  PUBLIC '-//W3C//DTD SVG 1.1//EN'  'http://www.w3.org/Graphics/SVG/1.1/DTD/svg11.dtd'>
<svg width=".084673in" height=".097311in" clip-rule="evenodd" fill-rule="evenodd" image-rendering="optimizeQuality" shape-rendering="geometricPrecision" text-rendering="geometricPrecision" version="1.1" viewBox="0 0 2.47 2.84" xml:space="preserve" xmlns="http://www.w3.org/2000/svg">
 <defs>
  <style type="text/css">
   <![CDATA[
    .fil0 {fill:#EF333B;fill-rule:nonzero}
   ]]>
  </style>
 </defs>
 
  
  
   
    <path class="fil0" d="m1.23 0c-0.02 0-0.03 0.01-0.04 0.02l-0.35 0.41h-0.64-0.01-0.01-0.11c-0.02-0-0.04 0.01-0.05 0.03s-0.01 0.04 0 0.06 0.03 0.03 0.05 0.03h0.06v0.12c-0 0.02 0.01 0.04 0.03 0.05s0.04 0.01 0.06 0 0.03-0.03 0.03-0.05v-0.12h0.04l0.51 0.34v0.34h-0.61-0.01-0.01-0.11c-0.02-0-0.04 0.01-0.05 0.03s-0.01 0.04 0 0.06 0.03 0.03 0.05 0.03h0.06v0.12c-0 0.02 0.01 0.04 0.03 0.05s0.04 0.01 0.06 0 0.03-0.03 0.03-0.05v-0.12h0.04l0.51 0.34v0.38l-0.48 0.66c-0.02 0.02-0.02 0.05 0 0.07s0.04 0.03 0.07 0.02l0.84-0.3 0.84 0.3c0.03 0.01 0.05 0 0.07-0.02s0.02-0.05 0-0.07l-0.48-0.66v-0.38l0.51-0.34h0.04v0.12c-0 0.02 0.01 0.04 0.03 0.05s0.04 0.01 0.06 0 0.03-0.03 0.03-0.05v-0.12h0.06c0.02 0 0.04-0.01 0.05-0.03s0.01-0.04 0-0.06-0.03-0.03-0.05-0.03h-0.11-0.01-0.01-0.61v-0.34l0.51-0.34h0.04v0.12c-0 0.02 0.01 0.04 0.03 0.05s0.04 0.01 0.06 0 0.03-0.03 0.03-0.05v-0.12h0.06c0.02 0 0.04-0.01 0.05-0.03s0.01-0.04 0-0.06-0.03-0.03-0.05-0.03h-0.11-0.01-0.01-0.64l-0.35-0.41c-0.01-0.01-0.03-0.02-0.05-0.02zm0 0.16 0.24 0.28h-0.47l0.24-0.28zm-0.72 0.4h0.29v0.19l-0.29-0.19zm0.49 0h0.46l-0.23 0.25-0.23-0.25zm0.66 0h0.29l-0.29 0.19v-0.19zm-0.74 0.1 0.22 0.24-0.22 0.24v-0.49zm0.62 0v0.49l-0.22-0.24 0.22-0.24zm-0.31 0.33 0.23 0.25h-0.46l0.23-0.25zm-0.72 0.37h0.29v0.19l-0.29-0.19zm0.49 0h0.46l-0.23 0.25-0.23-0.25zm0.66 0h0.29l-0.29 0.19v-0.19zm-0.74 0.1 0.22 0.24-0.22 0.24v-0.49zm0.62 0v0.49l-0.22-0.24 0.22-0.24zm-0.31 0.33 0.28 0.31-0.28 0.28-0.28-0.28 0.28-0.31zm-0.36 0.4 0.25 0.25-0.58 0.21 0.33-0.46zm0.72 0 0.33 0.46-0.58-0.21 0.25-0.25z"/>
   
  
 
</svg>
