<?xml version="1.0" encoding="UTF-8"?>
<!DOCTYPE svg PUBLIC "-//W3C//DTD SVG 1.1//EN" "http://www.w3.org/Graphics/SVG/1.1/DTD/svg11.dtd">
<!-- Creator: CorelDRAW 2021 (64-Bit) -->
<svg xmlns="http://www.w3.org/2000/svg" xml:space="preserve" width="0.0947598in" height="0.0949803in" version="1.1" style="shape-rendering:geometricPrecision; text-rendering:geometricPrecision; image-rendering:optimizeQuality; fill-rule:evenodd; clip-rule:evenodd"
viewBox="0 0 2.25 2.26"
 xmlns:xlink="http://www.w3.org/1999/xlink"
 xmlns:xodm="http://www.corel.com/coreldraw/odm/2003">
 <defs>
  <style type="text/css">
   <![CDATA[
    .fil0 {fill:#EF333B;fill-rule:nonzero}
   ]]>
  </style>
 </defs>
 <g id="Layer_x0020_1">
  <metadata id="CorelCorpID_0Corel-Layer"/>
  <g id="_1504388925664">
   <g id="surface1">
    <path class="fil0" d="M0.65 0c0,0 -0.11,-0 -0.24,0.06 -0.13,0.06 -0.28,0.19 -0.36,0.44 -0.18,0.55 0.22,0.89 0.22,0.89l0.01 0.01 0 0.86 0.09 0 0 -0.84 0.04 -0.06 0.23 -0.37 0.59 0.14 -0.13 0.94 -0.25 0 0 0.19 1.22 0 0 -0.19 -0.02 0 0.06 -0.77c0.07,-0.03 0.13,-0.08 0.14,-0.16 0.03,-0.12 -0.05,-0.24 -0.17,-0.27l-1.33 -0.32 0 -0.55 -0.09 0zm-0.09 0.21l0 0.42 -0.05 0.21 -0.19 0.31c-0.08,-0.09 -0.2,-0.27 -0.09,-0.6 0.07,-0.2 0.17,-0.28 0.26,-0.32 0.04,-0.02 0.04,-0.01 0.07,-0.02zm0.16 0.53l1.31 0.31c0.02,0.01 0.03,0.03 0.03,0.05 -0.01,0.02 -0.03,0.03 -0.05,0.03l-1.31 -0.31 0.02 -0.07zm0.68 0.43l0.01 0 0.13 0.89 -0.26 0 0.12 -0.89zm0.21 0.05l0.3 0.07 -0.06 0.77 -0.12 0 -0.12 -0.84z"/>
   </g>
  </g>
 </g>
</svg>
